<?xml version="1.0" encoding="UTF-8" standalone="no"?>
<!DOCTYPE svg PUBLIC "-//W3C//DTD SVG 1.1//EN"
 "http://www.w3.org/Graphics/SVG/1.1/DTD/svg11.dtd">
<!-- Generated by graphviz version 3.0.0 (20220226.1711)
 -->
<!-- Title: dependencies Pages: 1 -->
<svg width="468pt" height="247pt"
 viewBox="0.00 0.00 468.00 246.80" xmlns="http://www.w3.org/2000/svg" xmlns:xlink="http://www.w3.org/1999/xlink">
<g id="graph0" class="graph" transform="scale(1 1) rotate(0) translate(4 242.8)">
<title>dependencies</title>
<polygon fill="white" stroke="transparent" points="-4,4 -4,-242.8 464,-242.8 464,4 -4,4"/>
<text text-anchor="middle" x="230" y="-8.2" font-family="sans-serif" font-size="14.00">dependencies</text>
<g id="clust1" class="cluster">
<title>cluster_ProductsModule</title>
<polygon fill="none" stroke="black" stroke-dasharray="1,5" points="8,-32.8 8,-230.8 452,-230.8 452,-32.8 8,-32.8"/>
</g>
<g id="clust4" class="cluster">
<title>cluster_ProductsModule_exports</title>
<polygon fill="none" stroke="black" points="193,-170.8 193,-222.8 319,-222.8 319,-170.8 193,-170.8"/>
</g>
<g id="clust3" class="cluster">
<title>cluster_ProductsModule_imports</title>
<polygon fill="none" stroke="black" points="188,-40.8 188,-92.8 444,-92.8 444,-40.8 188,-40.8"/>
</g>
<g id="clust6" class="cluster">
<title>cluster_ProductsModule_providers</title>
<polygon fill="none" stroke="black" points="16,-40.8 16,-92.8 180,-92.8 180,-40.8 16,-40.8"/>
</g>
<!-- ScraperModule -->
<g id="node1" class="node">
<title>ScraperModule</title>
<polygon fill="#8dd3c7" stroke="black" points="436.3,-84.8 433.3,-88.8 412.3,-88.8 409.3,-84.8 333.7,-84.8 333.7,-48.8 436.3,-48.8 436.3,-84.8"/>
<text text-anchor="middle" x="385" y="-62.6" font-family="Times,serif" font-size="14.00">ScraperModule</text>
</g>
<!-- ProductsModule -->
<g id="node3" class="node">
<title>ProductsModule</title>
<polygon fill="#8dd3c7" stroke="black" points="310.05,-149.8 307.05,-153.8 286.05,-153.8 283.05,-149.8 201.95,-149.8 201.95,-113.8 310.05,-113.8 310.05,-149.8"/>
<text text-anchor="middle" x="256" y="-127.6" font-family="Times,serif" font-size="14.00">ProductsModule</text>
</g>
<!-- ScraperModule&#45;&gt;ProductsModule -->
<g id="edge1" class="edge">
<title>ScraperModule&#45;&gt;ProductsModule</title>
<path fill="none" stroke="black" d="M385,-84.91C385,-104.14 385,-131.8 385,-131.8 385,-131.8 320.33,-131.8 320.33,-131.8"/>
<polygon fill="black" stroke="black" points="320.33,-128.3 310.33,-131.8 320.33,-135.3 320.33,-128.3"/>
</g>
<!-- ThirdPartyModule -->
<g id="node2" class="node">
<title>ThirdPartyModule</title>
<polygon fill="#8dd3c7" stroke="black" points="316.21,-84.8 313.21,-88.8 292.21,-88.8 289.21,-84.8 195.79,-84.8 195.79,-48.8 316.21,-48.8 316.21,-84.8"/>
<text text-anchor="middle" x="256" y="-62.6" font-family="Times,serif" font-size="14.00">ThirdPartyModule</text>
</g>
<!-- ThirdPartyModule&#45;&gt;ProductsModule -->
<g id="edge2" class="edge">
<title>ThirdPartyModule&#45;&gt;ProductsModule</title>
<path fill="none" stroke="black" d="M256,-84.91C256,-84.91 256,-103.79 256,-103.79"/>
<polygon fill="black" stroke="black" points="252.5,-103.79 256,-113.79 259.5,-103.79 252.5,-103.79"/>
</g>
<!-- ProductsService  -->
<g id="node4" class="node">
<title>ProductsService </title>
<polygon fill="#fb8072" stroke="black" points="311.48,-214.8 200.52,-214.8 200.52,-178.8 311.48,-178.8 311.48,-214.8"/>
<text text-anchor="middle" x="256" y="-192.6" font-family="Times,serif" font-size="14.00">ProductsService </text>
</g>
<!-- ProductsModule&#45;&gt;ProductsService  -->
<g id="edge3" class="edge">
<title>ProductsModule&#45;&gt;ProductsService </title>
<path fill="none" stroke="black" stroke-dasharray="5,2" d="M256,-149.91C256,-149.91 256,-168.79 256,-168.79"/>
<polygon fill="black" stroke="black" points="252.5,-168.79 256,-178.79 259.5,-168.79 252.5,-168.79"/>
</g>
<!-- ProductsService -->
<g id="node5" class="node">
<title>ProductsService</title>
<ellipse fill="#fdb462" stroke="black" cx="98" cy="-66.8" rx="73.59" ry="18"/>
<text text-anchor="middle" x="98" y="-62.6" font-family="Times,serif" font-size="14.00">ProductsService</text>
</g>
<!-- ProductsService&#45;&gt;ProductsModule -->
<g id="edge4" class="edge">
<title>ProductsService&#45;&gt;ProductsModule</title>
<path fill="none" stroke="black" d="M98,-84.91C98,-104.14 98,-131.8 98,-131.8 98,-131.8 191.63,-131.8 191.63,-131.8"/>
<polygon fill="black" stroke="black" points="191.63,-135.3 201.63,-131.8 191.63,-128.3 191.63,-135.3"/>
</g>
</g>
</svg>
