<?xml version="1.0" encoding="UTF-8" standalone="no"?>
<!DOCTYPE svg PUBLIC "-//W3C//DTD SVG 1.1//EN"
 "http://www.w3.org/Graphics/SVG/1.1/DTD/svg11.dtd">
<!-- Generated by graphviz version 3.0.0 (20220226.1711)
 -->
<!-- Title: dependencies Pages: 1 -->
<svg width="356pt" height="174pt"
 viewBox="0.00 0.00 356.00 173.80" xmlns="http://www.w3.org/2000/svg" xmlns:xlink="http://www.w3.org/1999/xlink">
<g id="graph0" class="graph" transform="scale(1 1) rotate(0) translate(4 169.8)">
<title>dependencies</title>
<polygon fill="white" stroke="transparent" points="-4,4 -4,-169.8 352,-169.8 352,4 -4,4"/>
<text text-anchor="middle" x="174" y="-8.2" font-family="sans-serif" font-size="14.00">dependencies</text>
<g id="clust1" class="cluster">
<title>cluster_AutosearchModule</title>
<polygon fill="none" stroke="black" stroke-dasharray="1,5" points="8,-32.8 8,-157.8 340,-157.8 340,-32.8 8,-32.8"/>
</g>
<g id="clust3" class="cluster">
<title>cluster_AutosearchModule_imports</title>
<polygon fill="none" stroke="black" points="208,-40.8 208,-92.8 332,-92.8 332,-40.8 208,-40.8"/>
</g>
<g id="clust6" class="cluster">
<title>cluster_AutosearchModule_providers</title>
<polygon fill="none" stroke="black" points="16,-40.8 16,-92.8 200,-92.8 200,-40.8 16,-40.8"/>
</g>
<!-- ProductsModule -->
<g id="node1" class="node">
<title>ProductsModule</title>
<polygon fill="#8dd3c7" stroke="black" points="324.05,-84.8 321.05,-88.8 300.05,-88.8 297.05,-84.8 215.95,-84.8 215.95,-48.8 324.05,-48.8 324.05,-84.8"/>
<text text-anchor="middle" x="270" y="-62.6" font-family="Times,serif" font-size="14.00">ProductsModule</text>
</g>
<!-- AutosearchModule -->
<g id="node2" class="node">
<title>AutosearchModule</title>
<polygon fill="#8dd3c7" stroke="black" points="250.8,-149.8 247.8,-153.8 226.8,-153.8 223.8,-149.8 127.2,-149.8 127.2,-113.8 250.8,-113.8 250.8,-149.8"/>
<text text-anchor="middle" x="189" y="-127.6" font-family="Times,serif" font-size="14.00">AutosearchModule</text>
</g>
<!-- ProductsModule&#45;&gt;AutosearchModule -->
<g id="edge1" class="edge">
<title>ProductsModule&#45;&gt;AutosearchModule</title>
<path fill="none" stroke="black" d="M233.19,-84.91C233.19,-84.91 233.19,-103.79 233.19,-103.79"/>
<polygon fill="black" stroke="black" points="229.69,-103.79 233.19,-113.79 236.69,-103.79 229.69,-103.79"/>
</g>
<!-- AutosearchService -->
<g id="node3" class="node">
<title>AutosearchService</title>
<ellipse fill="#fdb462" stroke="black" cx="108" cy="-66.8" rx="83.94" ry="18"/>
<text text-anchor="middle" x="108" y="-62.6" font-family="Times,serif" font-size="14.00">AutosearchService</text>
</g>
<!-- AutosearchService&#45;&gt;AutosearchModule -->
<g id="edge2" class="edge">
<title>AutosearchService&#45;&gt;AutosearchModule</title>
<path fill="none" stroke="black" d="M159.66,-81.23C159.66,-81.23 159.66,-103.69 159.66,-103.69"/>
<polygon fill="black" stroke="black" points="156.16,-103.69 159.66,-113.69 163.16,-103.69 156.16,-103.69"/>
</g>
</g>
</svg>
