<?xml version="1.0" encoding="UTF-8" standalone="no"?>
<!DOCTYPE svg PUBLIC "-//W3C//DTD SVG 1.1//EN"
 "http://www.w3.org/Graphics/SVG/1.1/DTD/svg11.dtd">
<!-- Generated by graphviz version 3.0.0 (20220226.1711)
 -->
<!-- Title: dependencies Pages: 1 -->
<svg width="810pt" height="174pt"
 viewBox="0.00 0.00 810.00 173.80" xmlns="http://www.w3.org/2000/svg" xmlns:xlink="http://www.w3.org/1999/xlink">
<g id="graph0" class="graph" transform="scale(1 1) rotate(0) translate(4 169.8)">
<title>dependencies</title>
<polygon fill="white" stroke="transparent" points="-4,4 -4,-169.8 806,-169.8 806,4 -4,4"/>
<text text-anchor="middle" x="401" y="-8.2" font-family="sans-serif" font-size="14.00">dependencies</text>
<g id="clust1" class="cluster">
<title>cluster_AppModule</title>
<polygon fill="none" stroke="black" stroke-dasharray="1,5" points="8,-32.8 8,-157.8 794,-157.8 794,-32.8 8,-32.8"/>
</g>
<g id="clust3" class="cluster">
<title>cluster_AppModule_imports</title>
<polygon fill="none" stroke="black" points="382,-40.8 382,-92.8 786,-92.8 786,-40.8 382,-40.8"/>
</g>
<g id="clust6" class="cluster">
<title>cluster_AppModule_providers</title>
<polygon fill="none" stroke="black" points="16,-40.8 16,-92.8 374,-92.8 374,-40.8 16,-40.8"/>
</g>
<!-- AutosearchModule -->
<g id="node1" class="node">
<title>AutosearchModule</title>
<polygon fill="#8dd3c7" stroke="black" points="777.8,-84.8 774.8,-88.8 753.8,-88.8 750.8,-84.8 654.2,-84.8 654.2,-48.8 777.8,-48.8 777.8,-84.8"/>
<text text-anchor="middle" x="716" y="-62.6" font-family="Times,serif" font-size="14.00">AutosearchModule</text>
</g>
<!-- AppModule -->
<g id="node4" class="node">
<title>AppModule</title>
<polygon fill="#8dd3c7" stroke="black" points="491.66,-149.8 488.66,-153.8 467.66,-153.8 464.66,-149.8 408.34,-149.8 408.34,-113.8 491.66,-113.8 491.66,-149.8"/>
<text text-anchor="middle" x="450" y="-127.6" font-family="Times,serif" font-size="14.00">AppModule</text>
</g>
<!-- AutosearchModule&#45;&gt;AppModule -->
<g id="edge1" class="edge">
<title>AutosearchModule&#45;&gt;AppModule</title>
<path fill="none" stroke="black" d="M716,-85.08C716,-106.12 716,-137.8 716,-137.8 716,-137.8 501.86,-137.8 501.86,-137.8"/>
<polygon fill="black" stroke="black" points="501.86,-134.3 491.86,-137.8 501.86,-141.3 501.86,-134.3"/>
</g>
<!-- ProductsModule -->
<g id="node2" class="node">
<title>ProductsModule</title>
<polygon fill="#8dd3c7" stroke="black" points="636.05,-84.8 633.05,-88.8 612.05,-88.8 609.05,-84.8 527.95,-84.8 527.95,-48.8 636.05,-48.8 636.05,-84.8"/>
<text text-anchor="middle" x="582" y="-62.6" font-family="Times,serif" font-size="14.00">ProductsModule</text>
</g>
<!-- ProductsModule&#45;&gt;AppModule -->
<g id="edge2" class="edge">
<title>ProductsModule&#45;&gt;AppModule</title>
<path fill="none" stroke="black" d="M582,-84.82C582,-102.17 582,-125.8 582,-125.8 582,-125.8 501.77,-125.8 501.77,-125.8"/>
<polygon fill="black" stroke="black" points="501.77,-122.3 491.77,-125.8 501.77,-129.3 501.77,-122.3"/>
</g>
<!-- ThirdPartyModule -->
<g id="node3" class="node">
<title>ThirdPartyModule</title>
<polygon fill="#8dd3c7" stroke="black" points="510.21,-84.8 507.21,-88.8 486.21,-88.8 483.21,-84.8 389.79,-84.8 389.79,-48.8 510.21,-48.8 510.21,-84.8"/>
<text text-anchor="middle" x="450" y="-62.6" font-family="Times,serif" font-size="14.00">ThirdPartyModule</text>
</g>
<!-- ThirdPartyModule&#45;&gt;AppModule -->
<g id="edge3" class="edge">
<title>ThirdPartyModule&#45;&gt;AppModule</title>
<path fill="none" stroke="black" d="M450,-84.91C450,-84.91 450,-103.79 450,-103.79"/>
<polygon fill="black" stroke="black" points="446.5,-103.79 450,-113.79 453.5,-103.79 446.5,-103.79"/>
</g>
<!-- AppService -->
<g id="node5" class="node">
<title>AppService</title>
<ellipse fill="#fdb462" stroke="black" cx="309" cy="-66.8" rx="56.75" ry="18"/>
<text text-anchor="middle" x="309" y="-62.6" font-family="Times,serif" font-size="14.00">AppService</text>
</g>
<!-- AppService&#45;&gt;AppModule -->
<g id="edge4" class="edge">
<title>AppService&#45;&gt;AppModule</title>
<path fill="none" stroke="black" d="M309,-84.82C309,-102.17 309,-125.8 309,-125.8 309,-125.8 398.08,-125.8 398.08,-125.8"/>
<polygon fill="black" stroke="black" points="398.08,-129.3 408.08,-125.8 398.08,-122.3 398.08,-129.3"/>
</g>
<!-- ThirdPartyEmailService -->
<g id="node6" class="node">
<title>ThirdPartyEmailService</title>
<ellipse fill="#fdb462" stroke="black" cx="129" cy="-66.8" rx="104.79" ry="18"/>
<text text-anchor="middle" x="129" y="-62.6" font-family="Times,serif" font-size="14.00">ThirdPartyEmailService</text>
</g>
<!-- ThirdPartyEmailService&#45;&gt;AppModule -->
<g id="edge5" class="edge">
<title>ThirdPartyEmailService&#45;&gt;AppModule</title>
<path fill="none" stroke="black" d="M129,-85.08C129,-106.12 129,-137.8 129,-137.8 129,-137.8 398.03,-137.8 398.03,-137.8"/>
<polygon fill="black" stroke="black" points="398.03,-141.3 408.03,-137.8 398.03,-134.3 398.03,-141.3"/>
</g>
</g>
</svg>
